C:\Users\r0593348\3dpredictsim\Results\Batchsim_tmt_linear\Pog_s1_tmt_aCst_d00_k500_ig24_pas_GRF.mot
nRows=15
nColumns=19

name C:\Users\r0593348\3dpredictsim\Results\Batchsim_tmt_linear\Pog_s1_tmt_aCst_d00_k500_ig24_pas_GRF.mot
datacolumns 19
datarows 15
range 0.5554596642 0.7109883702
endheader
time 	ground_force_vx	ground_force_vy	ground_force_vz	ground_force_px	ground_force_py	ground_force_pz	1_ground_force_vx	1_ground_force_vy	1_ground_force_vz	1_ground_force_px	1_ground_force_py	1_ground_force_pz	ground_torque_x	ground_torque_y	ground_torque_z	1_ground_torque_x	1_ground_torque_y	1_ground_torque_z
        0.5554596642	       98.4960736168	      493.0801421154	        3.9205948639	        0.3769032049	        0.0000000000	        0.0329875271	      -70.9909301631	       60.6907291239	      -30.9971958271	        0.8652155059	        0.0000000000	       -0.0375857837	        0.0000000000	        0.0000000000	        0.0000000000	        0.0000000000	        0.0000000000	        0.0000000000	
        0.5665688575	       80.2138225517	      409.5944602837	        8.8876069072	        0.3807481146	        0.0000000000	        0.0319283726	     -111.0927862675	      135.2125705680	      -79.3517251762	        0.8722508481	        0.0000000000	       -0.0350976297	        0.0000000000	        0.0000000000	        0.0000000000	        0.0000000000	        0.0000000000	        0.0000000000	
        0.5776780508	       60.3867254656	      319.0265821071	        9.7226837823	        0.3867277269	        0.0000000000	        0.0297343744	      -47.4890198448	      275.9159466324	      -36.6633507568	        0.8778419710	        0.0000000000	       -0.0324198719	        0.0000000000	        0.0000000000	        0.0000000000	        0.0000000000	        0.0000000000	        0.0000000000	
        0.5887872441	       32.2291120566	      213.5382223924	        5.9354407672	        0.3983820943	        0.0000000000	        0.0244795008	      -47.8748597103	      443.7819948124	       -6.1630526449	        0.8818902974	        0.0000000000	       -0.0324562417	        0.0000000000	        0.0000000000	        0.0000000000	        0.0000000000	        0.0000000000	        0.0000000000	
        0.5998964374	       11.4988704324	      141.6071683348	        8.8031016599	        0.4141803394	        0.0000000000	        0.0162899172	      -80.2955298747	      655.5777369576	        6.5514842070	        0.8906299434	        0.0000000000	       -0.0350107011	        0.0000000000	        0.0000000000	        0.0000000000	        0.0000000000	        0.0000000000	        0.0000000000	
        0.6110056306	        1.1488480506	      114.0408193381	       10.6593654471	        0.4137872778	        0.0000000000	        0.0166282283	     -105.0166934975	      805.2650155562	       12.5559390347	        0.8969611205	        0.0000000000	       -0.0368521958	        0.0000000000	        0.0000000000	        0.0000000000	        0.0000000000	        0.0000000000	        0.0000000000	
        0.6221148239	       -2.3540416759	       75.1522595308	        9.9323956766	        0.4142961175	        0.0000000000	        0.0166960008	     -114.9027447303	      865.5922560873	       13.8548234810	        0.9011154658	        0.0000000000	       -0.0379412074	        0.0000000000	        0.0000000000	        0.0000000000	        0.0000000000	        0.0000000000	        0.0000000000	
        0.6332240172	       -8.0172461987	       31.5165319458	        5.8527097003	        0.4140742466	        0.0000000000	        0.0166381822	     -112.3762222111	      866.2741139660	       13.7912353386	        0.9042912194	        0.0000000000	       -0.0385671755	        0.0000000000	        0.0000000000	        0.0000000000	        0.0000000000	        0.0000000000	        0.0000000000	
        0.6443332105	        0.0941916134	       -0.0940135604	       -0.0024492455	        0.0000000000	        0.0000000000	        0.0000000000	     -103.5028689673	      844.7965144772	       13.9899704926	        0.9074486381	        0.0000000000	       -0.0388776343	        0.0000000000	        0.0000000000	        0.0000000000	        0.0000000000	        0.0000000000	        0.0000000000	
        0.6554424038	        0.0000730758	       -0.0000598123	        0.0000042682	        0.0000000000	        0.0000000000	        0.0000000000	      -90.9042381537	      810.9113113074	       14.7829607195	        0.9107414208	        0.0000000000	       -0.0389925033	        0.0000000000	        0.0000000000	        0.0000000000	        0.0000000000	        0.0000000000	        0.0000000000	
        0.6665515971	        0.0000361775	       -0.0000258616	        0.0000027593	        0.0000000000	        0.0000000000	        0.0000000000	      -78.8664454748	      772.1958970660	       15.1126162041	        0.9144725197	        0.0000000000	       -0.0390253912	        0.0000000000	        0.0000000000	        0.0000000000	        0.0000000000	        0.0000000000	        0.0000000000	
        0.6776607903	        0.0003777996	       -0.0002421081	        0.0000323411	        0.0000000000	        0.0000000000	        0.0000000000	      -68.6638950581	      737.1504170036	       15.2315395595	        0.9187812189	        0.0000000000	       -0.0389444463	        0.0000000000	        0.0000000000	        0.0000000000	        0.0000000000	        0.0000000000	        0.0000000000	
        0.6887699836	        0.0053893671	       -0.0031669333	        0.0004892936	        0.0000000000	        0.0000000000	        0.0000000000	      -58.6773470600	      703.8592208181	       15.6091780084	        0.9230704509	        0.0000000000	       -0.0388508076	        0.0000000000	        0.0000000000	        0.0000000000	        0.0000000000	        0.0000000000	        0.0000000000	
        0.6998791769	       -0.0242125005	        0.0132403035	       -0.0022881897	        0.0000000000	        0.0000000000	        0.0000000000	      -48.8978482439	      672.7432547774	       16.1149431229	        0.9272088429	        0.0000000000	       -0.0388137346	        0.0000000000	        0.0000000000	        0.0000000000	        0.0000000000	        0.0000000000	        0.0000000000	
        0.7109883702	       -0.0168566865	        0.0086690590	       -0.0016467082	        0.0000000000	        0.0000000000	        0.0000000000	      -40.1930807366	      645.8692968081	       16.6722044344	        0.9314060974	        0.0000000000	       -0.0388298408	        0.0000000000	        0.0000000000	        0.0000000000	        0.0000000000	        0.0000000000	        0.0000000000	
